<svg width="0" height="0" class="hidden">
  <symbol fill="none" xmlns="http://www.w3.org/2000/svg" viewBox="0 0 24 24" id="activity">
    <path d="M22 12H18L15 21L9 3L6 12H2" stroke="currentColor" stroke-width="2" stroke-linecap="round" stroke-linejoin="round"></path>
  </symbol>
  <symbol fill="none" xmlns="http://www.w3.org/2000/svg" viewBox="0 0 20 20" id="arrow-down">
    <path d="M5 7.5L10 12.5L15 7.5" stroke="currentColor" stroke-width="1.67" stroke-linecap="round" stroke-linejoin="round"/>
  </symbol>
  <symbol fill="none" xmlns="http://www.w3.org/2000/svg" viewBox="0 0 20 20" id="arrow-up">
    <path d="M15 12.5L10 7.5L5 12.5" stroke="currentColor" stroke-width="1.67" stroke-linecap="round" stroke-linejoin="round"/>
  </symbol>
  <symbol fill="none" xmlns="http://www.w3.org/2000/svg" viewBox="0 0 20 20" id="arrow-right">
    <path d="M4.16675 9.99996H15.8334M15.8334 9.99996L10.0001 4.16663M15.8334 9.99996L10.0001 15.8333" stroke="currentColor" stroke-width="1.67" stroke-linecap="round" stroke-linejoin="round"></path>
  </symbol>
  <symbol fill="none" xmlns="http://www.w3.org/2000/svg" viewBox="0 0 24 24" id="award">
    <path d="M8.21 13.89L7 23L12 20L17 23L15.79 13.88M19 8C19 11.866 15.866 15 12 15C8.13401 15 5 11.866 5 8C5 4.13401 8.13401 1 12 1C15.866 1 19 4.13401 19 8Z" stroke="currentColor" stroke-width="2" stroke-linecap="round" stroke-linejoin="round"></path>
  </symbol>
  <symbol fill="none" xmlns="http://www.w3.org/2000/svg" viewBox="0 0 24 24" id="bar-chart">
    <path d="M18 20V10M12 20V4M6 20V14" stroke="currentColor" stroke-width="2" stroke-linecap="round" stroke-linejoin="round"></path>
  </symbol>
  <symbol fill="none" xmlns="http://www.w3.org/2000/svg" viewBox="0 0 24 24" id="battery-charging">
    <path d="M5 18H3C2.46957 18 1.96086 17.7893 1.58579 17.4142C1.21071 17.0391 1 16.5304 1 16V8C1 7.46957 1.21071 6.96086 1.58579 6.58579C1.96086 6.21071 2.46957 6 3 6H6.19M15 6H17C17.5304 6 18.0391 6.21071 18.4142 6.58579C18.7893 6.96086 19 7.46957 19 8V16C19 16.5304 18.7893 17.0391 18.4142 17.4142C18.0391 17.7893 17.5304 18 17 18H13.81M23 13V11M11 6L7 12H13L9 18" stroke="currentColor" stroke-width="2" stroke-linecap="round" stroke-linejoin="round"/>
  </symbol>
  <symbol fill="none" xmlns="http://www.w3.org/2000/svg" viewBox="0 0 24 24" id="briefcase">
    <path d="M16 21V5C16 4.46957 15.7893 3.96086 15.4142 3.58579C15.0391 3.21071 14.5304 3 14 3H10C9.46957 3 8.96086 3.21071 8.58579 3.58579C8.21071 3.96086 8 4.46957 8 5V21M4 7H20C21.1046 7 22 7.89543 22 9V19C22 20.1046 21.1046 21 20 21H4C2.89543 21 2 20.1046 2 19V9C2 7.89543 2.89543 7 4 7Z" stroke="currentColor" stroke-width="2" stroke-linecap="round" stroke-linejoin="round"/>
  </symbol>
  <symbol fill="none" xmlns="http://www.w3.org/2000/svg" viewBox="0 0 24 24" id="droplet">
    <path d="M11.9999 2.68994L17.6599 8.34994C18.7792 9.46855 19.5417 10.894 19.8508 12.446C20.1599 13.998 20.0018 15.6068 19.3964 17.0689C18.7911 18.531 17.7657 19.7808 16.45 20.66C15.1343 21.5393 13.5874 22.0086 12.0049 22.0086C10.4224 22.0086 8.87549 21.5393 7.55978 20.66C6.24407 19.7808 5.2187 18.531 4.61335 17.0689C4.008 15.6068 3.84988 13.998 4.15899 12.446C4.46809 10.894 5.23054 9.46855 6.34989 8.34994L11.9999 2.68994Z" stroke="currentColor" stroke-width="2" stroke-linecap="round" stroke-linejoin="round"/>
  </symbol>
  <symbol fill="none" xmlns="http://www.w3.org/2000/svg" viewBox="0 0 20 20" id="doctolib">
    <path d="M3.17707 10.3958C3.17707 10.3958 3.16351 10.4364 3.12286 10.5177C3.08221 10.5991 3.04155 10.7075 2.98735 10.843C2.87894 11.1275 2.72988 11.5476 2.66213 12.049C2.63502 12.3065 2.60792 12.5775 2.62147 12.8621C2.62147 13.0111 2.63502 13.1602 2.66213 13.3093C2.67568 13.3906 2.67568 13.4583 2.68923 13.4854C2.70278 13.5396 2.71633 13.5938 2.74343 13.6616C2.90605 14.1359 3.40743 14.705 4.09854 15.2064C4.78964 15.7078 5.6569 16.1821 6.60547 16.6428C7.55405 17.09 8.63813 17.5236 9.81707 17.6998C10.4133 17.7811 11.0231 17.7946 11.6329 17.7133C11.931 17.6727 12.2427 17.6049 12.5408 17.5236C12.8389 17.4288 13.1235 17.3204 13.4081 17.1849C13.9637 16.9138 14.4651 16.5344 14.8851 16.0872C15.2917 15.64 15.6169 15.1115 15.8608 14.556C15.9828 14.2849 16.0776 14.0004 16.1725 13.7158C16.2538 13.4312 16.3216 13.1466 16.4029 12.8079C16.4164 12.7266 16.4435 12.6453 16.4571 12.564L16.5113 12.3336C16.5384 12.1845 16.579 12.0355 16.6061 11.8864C16.6332 11.7373 16.6739 11.5747 16.701 11.4257L16.7823 10.9785C16.9856 9.77244 17.0262 8.5935 16.8365 7.59073C16.7416 7.08934 16.579 6.64216 16.3758 6.26273C16.2674 6.07301 16.1454 5.89685 16.0234 5.72069C15.8879 5.55807 15.7524 5.39546 15.5898 5.25995C14.9529 4.69081 14.0992 4.29783 13.2455 4.05391C12.3782 3.80999 11.5245 3.67448 10.7521 3.59317C9.97968 3.51187 9.28858 3.48477 8.70588 3.47121C8.13674 3.45766 7.676 3.45766 7.36433 3.45766H6.76809L6.72743 3.29505L6.83584 3.24085C6.83584 3.24085 6.9849 3.15954 7.28303 3.03758C7.58115 2.91562 8.01478 2.73946 8.59748 2.57685C9.16662 2.40068 9.88482 2.23807 10.725 2.11611C11.5651 2.0077 12.5408 1.93995 13.6385 2.07546C14.1805 2.14321 14.7632 2.25162 15.3594 2.46844C15.5085 2.52264 15.6576 2.57685 15.8066 2.6446C15.9557 2.71236 16.1047 2.78011 16.2538 2.86142C16.5519 3.01048 16.85 3.20019 17.1211 3.41701C17.4056 3.63383 17.6631 3.8913 17.9206 4.16232C18.1645 4.44689 18.3813 4.75856 18.5575 5.08379C18.7336 5.42256 18.8963 5.76134 18.9911 6.12722C19.0589 6.30338 19.086 6.49309 19.1402 6.66926C19.1808 6.84542 19.2079 7.03514 19.235 7.2113C19.3299 7.94305 19.3163 8.66126 19.235 9.36591C19.1537 10.0706 19.0047 10.7617 18.8285 11.4257C18.7743 11.5883 18.7336 11.7644 18.6794 11.9271L18.5168 12.4149C18.4626 12.5775 18.3949 12.7401 18.3271 12.9027L18.2323 13.1466C18.2052 13.228 18.1645 13.2957 18.1374 13.377L17.9341 13.8513L17.6902 14.3391C17.514 14.6644 17.3243 14.976 17.094 15.2606C16.6603 15.8433 16.1318 16.3718 15.5627 16.7919C14.9936 17.2255 14.3702 17.5643 13.7333 17.8217C13.5707 17.8895 13.4081 17.9437 13.259 17.9979C13.0964 18.0521 12.9338 18.1063 12.7712 18.147C12.446 18.2418 12.1207 18.3231 11.7955 18.3773C11.1451 18.5129 10.4811 18.5942 9.83062 18.6348C8.52972 18.7161 7.22882 18.6484 6.03633 18.3502C4.84384 18.0521 3.75976 17.5101 2.89249 16.7783C2.44531 16.426 2.06588 16.0195 1.74066 15.5723C1.42898 15.1251 1.17151 14.6102 1.0631 14.0546C1.036 13.9191 1.02245 13.7835 1.0089 13.6345C0.99535 13.4719 0.995349 13.3499 1.02245 13.2415C1.036 13.1331 1.04955 13.0247 1.07666 12.9163C1.09021 12.8079 1.11731 12.713 1.14441 12.6046C1.25282 12.1981 1.40188 11.8593 1.57804 11.5612C1.93037 10.9785 2.32335 10.6397 2.60792 10.45C2.67568 10.3958 2.74343 10.3551 2.79764 10.328C2.85184 10.2874 2.90604 10.2738 2.93315 10.2467C3.01445 10.2061 3.0551 10.1925 3.0551 10.1925L3.16351 10.1383L3.27192 10.2332L3.17707 10.3958Z" fill="currentColor"/>
    <path d="M10.9419 6.15444C10.4405 8.68848 9.95264 11.209 9.45126 13.743C9.28864 14.5696 11.0096 13.6075 11.1316 13.0519C11.633 10.5179 12.1208 7.99738 12.6222 5.46334C12.7713 4.62317 11.0503 5.5853 10.9419 6.15444Z" fill="currentColor"/>
  </symbol>
  <symbol fill="none" xmlns="http://www.w3.org/2000/svg" viewBox="0 0 24 24" id="fb">
    <path d="M24 12C24 5.37258 18.6274 0 12 0C5.37258 0 0 5.37258 0 12C0 17.9895 4.3882 22.954 10.125 23.8542V15.4688H7.07812V12H10.125V9.35625C10.125 6.34875 11.9166 4.6875 14.6576 4.6875C15.9701 4.6875 17.3438 4.92188 17.3438 4.92188V7.875H15.8306C14.34 7.875 13.875 8.80008 13.875 9.75V12H17.2031L16.6711 15.4688H13.875V23.8542C19.6118 22.954 24 17.9895 24 12Z" fill="currentColor"></path>
  </symbol>
  <symbol fill="none" xmlns="http://www.w3.org/2000/svg" viewBox="0 0 24 24" id="flag">
    <path d="M4 15C4 15 5 14 8 14C11 14 13 16 16 16C19 16 20 15 20 15V3C20 3 19 4 16 4C13 4 11 2 8 2C5 2 4 3 4 3V15ZM4 15V22" stroke="currentColor" stroke-width="2" stroke-linecap="round" stroke-linejoin="round"/>
  </symbol>
  <symbol fill="none" xmlns="http://www.w3.org/2000/svg" viewBox="0 0 24 24" id="frown">
    <path d="M16 16C16 16 14.5 14 12 14C9.5 14 8 16 8 16M9 9H9.01M15 9H15.01M22 12C22 17.5228 17.5228 22 12 22C6.47715 22 2 17.5228 2 12C2 6.47715 6.47715 2 12 2C17.5228 2 22 6.47715 22 12Z" stroke="currentColor" stroke-width="2" stroke-linecap="round" stroke-linejoin="round"/>
  </symbol>
  <symbol fill="none" xmlns="http://www.w3.org/2000/svg" viewBox="0 0 20 20" id="calendar">
    <path d="M13.3333 1.66675V5.00008M6.66667 1.66675V5.00008M2.5 8.33342H17.5M4.16667 3.33341H15.8333C16.7538 3.33341 17.5 4.07961 17.5 5.00008V16.6667C17.5 17.5872 16.7538 18.3334 15.8333 18.3334H4.16667C3.24619 18.3334 2.5 17.5872 2.5 16.6667V5.00008C2.5 4.07961 3.24619 3.33341 4.16667 3.33341Z" stroke="currentColor" stroke-width="1.67" stroke-linecap="round" stroke-linejoin="round"></path>
  </symbol>
  <symbol fill="none" xmlns="http://www.w3.org/2000/svg" viewBox="0 0 24 24" id="close">
    <path d="M18 6L6 18M6 6L18 18" stroke="#424242" stroke-width="2" stroke-linecap="round" stroke-linejoin="round"/>
  </symbol>
  <symbol fill="none" xmlns="http://www.w3.org/2000/svg" viewBox="0 0 12 12" id="check">
    <path d="M10 3L4.5 8.5L2 6" stroke="currentColor" stroke-width="1.6666" stroke-linecap="round" stroke-linejoin="round"/>
  </symbol>
  <symbol fill="none" xmlns="http://www.w3.org/2000/svg" viewBox="0 0 20 20" id="copy">
    <path d="M4.1665 12.5001H3.33317C2.89114 12.5001 2.46722 12.3245 2.15466 12.0119C1.8421 11.6994 1.6665 11.2754 1.6665 10.8334V3.33341C1.6665 2.89139 1.8421 2.46746 2.15466 2.1549C2.46722 1.84234 2.89114 1.66675 3.33317 1.66675H10.8332C11.2752 1.66675 11.6991 1.84234 12.0117 2.1549C12.3242 2.46746 12.4998 2.89139 12.4998 3.33341V4.16675M9.1665 7.50008H16.6665C17.587 7.50008 18.3332 8.24627 18.3332 9.16675V16.6667C18.3332 17.5872 17.587 18.3334 16.6665 18.3334H9.1665C8.24603 18.3334 7.49984 17.5872 7.49984 16.6667V9.16675C7.49984 8.24627 8.24603 7.50008 9.1665 7.50008Z" stroke="currentColor" stroke-width="1.67" stroke-linecap="round" stroke-linejoin="round"/>
  </symbol>
  <symbol fill="none" xmlns="http://www.w3.org/2000/svg" viewBox="0 0 20 20" id="headphones">
    <path d="M2.5 15V10C2.5 8.01088 3.29018 6.10322 4.6967 4.6967C6.10322 3.29018 8.01088 2.5 10 2.5C11.9891 2.5 13.8968 3.29018 15.3033 4.6967C16.7098 6.10322 17.5 8.01088 17.5 10V15M17.5 15.8333C17.5 16.2754 17.3244 16.6993 17.0118 17.0118C16.6993 17.3244 16.2754 17.5 15.8333 17.5H15C14.558 17.5 14.134 17.3244 13.8215 17.0118C13.5089 16.6993 13.3333 16.2754 13.3333 15.8333V13.3333C13.3333 12.8913 13.5089 12.4674 13.8215 12.1548C14.134 11.8423 14.558 11.6667 15 11.6667H17.5V15.8333ZM2.5 15.8333C2.5 16.2754 2.67559 16.6993 2.98816 17.0118C3.30072 17.3244 3.72464 17.5 4.16667 17.5H5C5.44203 17.5 5.86595 17.3244 6.17851 17.0118C6.49107 16.6993 6.66667 16.2754 6.66667 15.8333V13.3333C6.66667 12.8913 6.49107 12.4674 6.17851 12.1548C5.86595 11.8423 5.44203 11.6667 5 11.6667H2.5V15.8333Z" stroke="currentColor" stroke-width="1.67" stroke-linecap="round" stroke-linejoin="round"></path>
  </symbol>
  <symbol fill="none" xmlns="http://www.w3.org/2000/svg" viewBox="0 0 24 24" id="loader">
    <path d="M12 2V6M12 18V22M4.93 4.93L7.76 7.76M16.24 16.24L19.07 19.07M2 12H6M18 12H22M4.93 19.07L7.76 16.24M16.24 7.76L19.07 4.93" stroke="currentColor" stroke-width="2" stroke-linecap="round" stroke-linejoin="round"></path>
  </symbol>
  <symbol fill="none" xmlns="http://www.w3.org/2000/svg" viewBox="0 0 20 20" id="heart">
    <path d="M17.3666 3.84172C16.941 3.41589 16.4356 3.0781 15.8794 2.84763C15.3232 2.61716 14.727 2.49854 14.1249 2.49854C13.5229 2.49854 12.9267 2.61716 12.3705 2.84763C11.8143 3.0781 11.3089 3.41589 10.8833 3.84172L9.99994 4.72506L9.1166 3.84172C8.25686 2.98198 7.0908 2.49898 5.87494 2.49898C4.65908 2.49898 3.49301 2.98198 2.63327 3.84172C1.77353 4.70147 1.29053 5.86753 1.29053 7.08339C1.29053 8.29925 1.77353 9.46531 2.63327 10.3251L3.5166 11.2084L9.99994 17.6917L16.4833 11.2084L17.3666 10.3251C17.7924 9.89943 18.1302 9.39407 18.3607 8.83785C18.5912 8.28164 18.7098 7.68546 18.7098 7.08339C18.7098 6.48132 18.5912 5.88514 18.3607 5.32893C18.1302 4.77271 17.7924 4.26735 17.3666 3.84172V3.84172Z" stroke="currentColor" stroke-width="1.67" stroke-linecap="round" stroke-linejoin="round"></path>
  </symbol>
  <symbol fill="none" xmlns="http://www.w3.org/2000/svg" viewBox="0 0 20 20" id="map-pin">
    <path d="M18 8.36364C18 14.0909 10 19 10 19C10 19 2 14.0909 2 8.36364C2 6.41068 2.84285 4.53771 4.34315 3.15676C5.84344 1.77581 7.87827 1 10 1C12.1217 1 14.1566 1.77581 15.6569 3.15676C17.1571 4.53771 18 6.41068 18 8.36364Z" stroke="currentColor" stroke-width="1.67" stroke-linecap="round" stroke-linejoin="round"></path>
    <path d="M10 10.8182C11.4728 10.8182 12.6667 9.71924 12.6667 8.36364C12.6667 7.00803 11.4728 5.90909 10 5.90909C8.52724 5.90909 7.33333 7.00803 7.33333 8.36364C7.33333 9.71924 8.52724 10.8182 10 10.8182Z" stroke="currentColor" stroke-width="1.67" stroke-linecap="round" stroke-linejoin="round"></path>
  </symbol>
  <symbol fill="none" xmlns="http://www.w3.org/2000/svg" viewBox="0 0 24 24" id="menu">
    <path d="M3 12H21M3 6H21M3 18H21" stroke="#424242" stroke-width="2" stroke-linecap="round" stroke-linejoin="round"/>
  </symbol>
  <symbol fill="none" xmlns="http://www.w3.org/2000/svg" viewBox="0 0 20 20" id="message-circle">
    <path d="M17.5 9.58336C17.5029 10.6832 17.2459 11.7683 16.75 12.75C16.162 13.9265 15.2581 14.916 14.1395 15.6078C13.021 16.2995 11.7319 16.6662 10.4167 16.6667C9.31678 16.6696 8.23176 16.4126 7.25 15.9167L2.5 17.5L4.08333 12.75C3.58744 11.7683 3.33047 10.6832 3.33333 9.58336C3.33384 8.26815 3.70051 6.97907 4.39227 5.86048C5.08402 4.7419 6.07355 3.838 7.25 3.25002C8.23176 2.75413 9.31678 2.49716 10.4167 2.50002H10.8333C12.5703 2.59585 14.2109 3.32899 15.4409 4.55907C16.671 5.78915 17.4042 7.42973 17.5 9.16669V9.58336Z" stroke="currentColor" stroke-width="1.67" stroke-linecap="round" stroke-linejoin="round"></path>
  </symbol>
  <symbol fill="none" xmlns="http://www.w3.org/2000/svg" viewBox="0 0 24 24" id="minus-circle">
    <path d="M8 12H16M22 12C22 17.5228 17.5228 22 12 22C6.47715 22 2 17.5228 2 12C2 6.47715 6.47715 2 12 2C17.5228 2 22 6.47715 22 12Z" stroke="currentColor" stroke-width="2" stroke-linecap="round" stroke-linejoin="round"></path>
  </symbol>
  <symbol fill="none" xmlns="http://www.w3.org/2000/svg" viewBox="0 0 20 20" id="phone">
    <path d="M18.3333 14.0999V16.5999C18.3343 16.832 18.2867 17.0617 18.1937 17.2744C18.1008 17.487 17.9644 17.6779 17.7934 17.8348C17.6224 17.9917 17.4205 18.1112 17.2006 18.1855C16.9808 18.2599 16.7478 18.2875 16.5167 18.2666C13.9523 17.988 11.4892 17.1117 9.32498 15.7083C7.31151 14.4288 5.60443 12.7217 4.32499 10.7083C2.91663 8.53425 2.04019 6.05908 1.76665 3.48325C1.74583 3.25281 1.77321 3.02055 1.84707 2.80127C1.92092 2.58199 2.03963 2.38049 2.19562 2.2096C2.35162 2.03871 2.54149 1.90218 2.75314 1.80869C2.9648 1.7152 3.1936 1.6668 3.42499 1.66658H5.92499C6.32941 1.6626 6.72148 1.80582 7.02812 2.06953C7.33476 2.33324 7.53505 2.69946 7.59165 3.09992C7.69717 3.89997 7.89286 4.68552 8.17499 5.44158C8.2871 5.73985 8.31137 6.06401 8.24491 6.37565C8.17844 6.68729 8.02404 6.97334 7.79998 7.19992L6.74165 8.25825C7.92795 10.3445 9.65536 12.072 11.7417 13.2583L12.8 12.1999C13.0266 11.9759 13.3126 11.8215 13.6243 11.755C13.9359 11.6885 14.26 11.7128 14.5583 11.8249C15.3144 12.107 16.0999 12.3027 16.9 12.4083C17.3048 12.4654 17.6745 12.6693 17.9388 12.9812C18.203 13.2931 18.3435 13.6912 18.3333 14.0999Z" stroke="currentColor" stroke-width="1.67" stroke-linecap="round" stroke-linejoin="round"></path>
  </symbol>
  <symbol fill="none" xmlns="http://www.w3.org/2000/svg" viewBox="0 0 24 24" id="plus-circle">
    <path d="M12 8V16M8 12H16M22 12C22 17.5228 17.5228 22 12 22C6.47715 22 2 17.5228 2 12C2 6.47715 6.47715 2 12 2C17.5228 2 22 6.47715 22 12Z" stroke="currentColor" stroke-width="2" stroke-linecap="round" stroke-linejoin="round"></path>
  </symbol>
  <symbol fill="none" xmlns="http://www.w3.org/2000/svg" viewBox="0 0 24 24" id="refresh-cw">
    <path d="M23 3.99995V9.99995M23 9.99995H17M23 9.99995L18.36 5.63995C17.2853 4.56467 15.9556 3.77916 14.4952 3.35673C13.0348 2.93429 11.4911 2.8887 10.0083 3.22421C8.52547 3.55972 7.1518 4.26539 6.01547 5.27537C4.87913 6.28536 4.01717 7.56674 3.51 8.99995M1 20V14M1 14H7M1 14L5.64 18.36C6.71475 19.4352 8.04437 20.2207 9.50481 20.6432C10.9652 21.0656 12.5089 21.1112 13.9917 20.7757C15.4745 20.4402 16.8482 19.7345 17.9845 18.7245C19.1209 17.7145 19.9828 16.4332 20.49 15" stroke="currentColor" stroke-width="2" stroke-linecap="round" stroke-linejoin="round"></path>
  </symbol>
  <symbol fill="none" xmlns="http://www.w3.org/2000/svg" viewBox="0 0 24 24" id="settings">
    <path d="M12 15C13.6569 15 15 13.6569 15 12C15 10.3431 13.6569 9 12 9C10.3431 9 9 10.3431 9 12C9 13.6569 10.3431 15 12 15Z" stroke="currentColor" stroke-width="2" stroke-linecap="round" stroke-linejoin="round"/>
    <path d="M19.4 15C19.2669 15.3016 19.2272 15.6362 19.286 15.9606C19.3448 16.285 19.4995 16.5843 19.73 16.82L19.79 16.88C19.976 17.0657 20.1235 17.2863 20.2241 17.5291C20.3248 17.7719 20.3766 18.0322 20.3766 18.295C20.3766 18.5578 20.3248 18.8181 20.2241 19.0609C20.1235 19.3037 19.976 19.5243 19.79 19.71C19.6043 19.896 19.3837 20.0435 19.1409 20.1441C18.8981 20.2448 18.6378 20.2966 18.375 20.2966C18.1122 20.2966 17.8519 20.2448 17.6091 20.1441C17.3663 20.0435 17.1457 19.896 16.96 19.71L16.9 19.65C16.6643 19.4195 16.365 19.2648 16.0406 19.206C15.7162 19.1472 15.3816 19.1869 15.08 19.32C14.7842 19.4468 14.532 19.6572 14.3543 19.9255C14.1766 20.1938 14.0813 20.5082 14.08 20.83V21C14.08 21.5304 13.8693 22.0391 13.4942 22.4142C13.1191 22.7893 12.6104 23 12.08 23C11.5496 23 11.0409 22.7893 10.6658 22.4142C10.2907 22.0391 10.08 21.5304 10.08 21V20.91C10.0723 20.579 9.96512 20.258 9.77251 19.9887C9.5799 19.7194 9.31074 19.5143 9 19.4C8.69838 19.2669 8.36381 19.2272 8.03941 19.286C7.71502 19.3448 7.41568 19.4995 7.18 19.73L7.12 19.79C6.93425 19.976 6.71368 20.1235 6.47088 20.2241C6.22808 20.3248 5.96783 20.3766 5.705 20.3766C5.44217 20.3766 5.18192 20.3248 4.93912 20.2241C4.69632 20.1235 4.47575 19.976 4.29 19.79C4.10405 19.6043 3.95653 19.3837 3.85588 19.1409C3.75523 18.8981 3.70343 18.6378 3.70343 18.375C3.70343 18.1122 3.75523 17.8519 3.85588 17.6091C3.95653 17.3663 4.10405 17.1457 4.29 16.96L4.35 16.9C4.58054 16.6643 4.73519 16.365 4.794 16.0406C4.85282 15.7162 4.81312 15.3816 4.68 15.08C4.55324 14.7842 4.34276 14.532 4.07447 14.3543C3.80618 14.1766 3.49179 14.0813 3.17 14.08H3C2.46957 14.08 1.96086 13.8693 1.58579 13.4942C1.21071 13.1191 1 12.6104 1 12.08C1 11.5496 1.21071 11.0409 1.58579 10.6658C1.96086 10.2907 2.46957 10.08 3 10.08H3.09C3.42099 10.0723 3.742 9.96512 4.0113 9.77251C4.28059 9.5799 4.48572 9.31074 4.6 9C4.73312 8.69838 4.77282 8.36381 4.714 8.03941C4.65519 7.71502 4.50054 7.41568 4.27 7.18L4.21 7.12C4.02405 6.93425 3.87653 6.71368 3.77588 6.47088C3.67523 6.22808 3.62343 5.96783 3.62343 5.705C3.62343 5.44217 3.67523 5.18192 3.77588 4.93912C3.87653 4.69632 4.02405 4.47575 4.21 4.29C4.39575 4.10405 4.61632 3.95653 4.85912 3.85588C5.10192 3.75523 5.36217 3.70343 5.625 3.70343C5.88783 3.70343 6.14808 3.75523 6.39088 3.85588C6.63368 3.95653 6.85425 4.10405 7.04 4.29L7.1 4.35C7.33568 4.58054 7.63502 4.73519 7.95941 4.794C8.28381 4.85282 8.61838 4.81312 8.92 4.68H9C9.29577 4.55324 9.54802 4.34276 9.72569 4.07447C9.90337 3.80618 9.99872 3.49179 10 3.17V3C10 2.46957 10.2107 1.96086 10.5858 1.58579C10.9609 1.21071 11.4696 1 12 1C12.5304 1 13.0391 1.21071 13.4142 1.58579C13.7893 1.96086 14 2.46957 14 3V3.09C14.0013 3.41179 14.0966 3.72618 14.2743 3.99447C14.452 4.26276 14.7042 4.47324 15 4.6C15.3016 4.73312 15.6362 4.77282 15.9606 4.714C16.285 4.65519 16.5843 4.50054 16.82 4.27L16.88 4.21C17.0657 4.02405 17.2863 3.87653 17.5291 3.77588C17.7719 3.67523 18.0322 3.62343 18.295 3.62343C18.5578 3.62343 18.8181 3.67523 19.0609 3.77588C19.3037 3.87653 19.5243 4.02405 19.71 4.21C19.896 4.39575 20.0435 4.61632 20.1441 4.85912C20.2448 5.10192 20.2966 5.36217 20.2966 5.625C20.2966 5.88783 20.2448 6.14808 20.1441 6.39088C20.0435 6.63368 19.896 6.85425 19.71 7.04L19.65 7.1C19.4195 7.33568 19.2648 7.63502 19.206 7.95941C19.1472 8.28381 19.1869 8.61838 19.32 8.92V9C19.4468 9.29577 19.6572 9.54802 19.9255 9.72569C20.1938 9.90337 20.5082 9.99872 20.83 10H21C21.5304 10 22.0391 10.2107 22.4142 10.5858C22.7893 10.9609 23 11.4696 23 12C23 12.5304 22.7893 13.0391 22.4142 13.4142C22.0391 13.7893 21.5304 14 21 14H20.91C20.5882 14.0013 20.2738 14.0966 20.0055 14.2743C19.7372 14.452 19.5268 14.7042 19.4 15Z" stroke="currentColor" stroke-width="2" stroke-linecap="round" stroke-linejoin="round"/>
  </symbol>
  <symbol fill="none" xmlns="http://www.w3.org/2000/svg" viewBox="0 0 12 12" id="shopping-cart">
    <path d="M0.5 0.5H2.5L3.84 7.195C3.88572 7.4252 4.01095 7.63198 4.19377 7.77915C4.37659 7.92632 4.60535 8.0045 4.84 8H9.7C9.93465 8.0045 10.1634 7.92632 10.3462 7.77915C10.529 7.63198 10.6543 7.4252 10.7 7.195L11.5 3H3M5 10.5C5 10.7761 4.77614 11 4.5 11C4.22386 11 4 10.7761 4 10.5C4 10.2239 4.22386 10 4.5 10C4.77614 10 5 10.2239 5 10.5ZM10.5 10.5C10.5 10.7761 10.2761 11 10 11C9.72386 11 9.5 10.7761 9.5 10.5C9.5 10.2239 9.72386 10 10 10C10.2761 10 10.5 10.2239 10.5 10.5Z" stroke="currentColor" stroke-linecap="round" stroke-linejoin="round"/>
  </symbol>
  <symbol fill="none" xmlns="http://www.w3.org/2000/svg" viewBox="0 0 24 24" id="sliders">
    <path d="M4 21V14M4 10V3M12 21V12M12 8V3M20 21V16M20 12V3M1 14H7M9 8H15M17 16H23" stroke="currentColor" stroke-width="2" stroke-linecap="round" stroke-linejoin="round"></path>
  </symbol>
  <symbol fill="none" xmlns="http://www.w3.org/2000/svg" viewBox="0 0 24 24" id="smartphone">
    <path d="M12 18H12.01M7 2H17C18.1046 2 19 2.89543 19 4V20C19 21.1046 18.1046 22 17 22H7C5.89543 22 5 21.1046 5 20V4C5 2.89543 5.89543 2 7 2Z" stroke="currentColor" stroke-width="2" stroke-linecap="round" stroke-linejoin="round"/>
  </symbol>
  <symbol fill="none" xmlns="http://www.w3.org/2000/svg" viewBox="0 0 20 20" id="star">
    <g clip-path="url(#clip0_35_82725)">
      <path d="M9.53834 1.60996C9.70914 1.19932 10.2909 1.19932 10.4617 1.60996L12.5278 6.57744C12.5998 6.75056 12.7626 6.86885 12.9495 6.88383L18.3123 7.31376C18.7556 7.3493 18.9354 7.90256 18.5976 8.19189L14.5117 11.6919C14.3693 11.8139 14.3071 12.0053 14.3506 12.1876L15.5989 17.4208C15.7021 17.8534 15.2315 18.1954 14.8519 17.9635L10.2606 15.1592C10.1006 15.0615 9.89938 15.0615 9.73937 15.1592L5.14806 17.9635C4.76851 18.1954 4.29788 17.8534 4.40108 17.4208L5.64939 12.1876C5.69289 12.0053 5.6307 11.8139 5.48831 11.6919L1.40241 8.19189C1.06464 7.90256 1.24441 7.3493 1.68773 7.31376L7.05054 6.88383C7.23744 6.86885 7.40024 6.75056 7.47225 6.57744L9.53834 1.60996Z" fill="#F2F4F7"/>
      <g clip-path="url(#clip1_35_82725)">
        <path d="M9.53834 1.60996C9.70914 1.19932 10.2909 1.19932 10.4617 1.60996L12.5278 6.57744C12.5998 6.75056 12.7626 6.86885 12.9495 6.88383L18.3123 7.31376C18.7556 7.3493 18.9354 7.90256 18.5976 8.19189L14.5117 11.6919C14.3693 11.8139 14.3071 12.0053 14.3506 12.1876L15.5989 17.4208C15.7021 17.8534 15.2315 18.1954 14.8519 17.9635L10.2606 15.1592C10.1006 15.0615 9.89938 15.0615 9.73937 15.1592L5.14806 17.9635C4.76851 18.1954 4.29788 17.8534 4.40108 17.4208L5.64939 12.1876C5.69289 12.0053 5.6307 11.8139 5.48831 11.6919L1.40241 8.19189C1.06464 7.90256 1.24441 7.3493 1.68773 7.31376L7.05054 6.88383C7.23744 6.86885 7.40024 6.75056 7.47225 6.57744L9.53834 1.60996Z" fill="#67AF37"/>
      </g>
    </g>
    <defs>
      <clipPath id="clip0_35_82725">
        <rect width="20" height="20" fill="white"/>
      </clipPath>
      <clipPath id="clip1_35_82725">
        <rect width="20" height="20" fill="white"/>
      </clipPath>
    </defs>
  </symbol>
  <symbol fill="none" xmlns="http://www.w3.org/2000/svg" viewBox="0 0 12 12" id="tag">
    <path d="M3.75 3.75H3.755M10.545 6.955L6.96 10.54C6.86713 10.633 6.75684 10.7067 6.63544 10.7571C6.51404 10.8074 6.38392 10.8333 6.2525 10.8333C6.12108 10.8333 5.99096 10.8074 5.86956 10.7571C5.74816 10.7067 5.63787 10.633 5.545 10.54L1.25 6.25V1.25H6.25L10.545 5.545C10.7313 5.73236 10.8358 5.98581 10.8358 6.25C10.8358 6.51419 10.7313 6.76764 10.545 6.955Z" stroke="currentColor" stroke-linecap="round" stroke-linejoin="round"/>
  </symbol>
  <symbol fill="none" xmlns="http://www.w3.org/2000/svg" viewBox="0 0 24 24" id="tool">
    <path d="M14.7003 6.29998C14.5171 6.48691 14.4145 6.73823 14.4145 6.99998C14.4145 7.26173 14.5171 7.51305 14.7003 7.69998L16.3003 9.29998C16.4873 9.48321 16.7386 9.58584 17.0003 9.58584C17.2621 9.58584 17.5134 9.48321 17.7003 9.29998L21.4703 5.52998C21.9732 6.64117 22.1254 7.87921 21.9068 9.07913C21.6882 10.279 21.1091 11.3838 20.2466 12.2463C19.3842 13.1087 18.2794 13.6878 17.0795 13.9064C15.8796 14.1251 14.6415 13.9728 13.5303 13.47L6.62034 20.38C6.22252 20.7778 5.68295 21.0013 5.12034 21.0013C4.55773 21.0013 4.01817 20.7778 3.62034 20.38C3.22252 19.9822 2.99902 19.4426 2.99902 18.88C2.99902 18.3174 3.22252 17.7778 3.62034 17.38L10.5303 10.47C10.0275 9.35879 9.87526 8.12075 10.0939 6.92083C10.3125 5.72092 10.8916 4.61614 11.7541 3.7537C12.6165 2.89127 13.7213 2.31215 14.9212 2.09352C16.1211 1.8749 17.3592 2.02714 18.4703 2.52998L14.7103 6.28998L14.7003 6.29998Z" stroke="currentColor" stroke-width="2" stroke-linecap="round" stroke-linejoin="round"/>
  </symbol>
  <symbol fill="none" xmlns="http://www.w3.org/2000/svg" viewBox="0 0 24 24" id="tv">
    <path d="M17 2L12 7L7 2M4 7H20C21.1046 7 22 7.89543 22 9V20C22 21.1046 21.1046 22 20 22H4C2.89543 22 2 21.1046 2 20V9C2 7.89543 2.89543 7 4 7Z" stroke="currentColor" stroke-width="2" stroke-linecap="round" stroke-linejoin="round"/>
  </symbol>
  <symbol fill="none" xmlns="http://www.w3.org/2000/svg" viewBox="0 0 20 20" id="twitter">
    <path d="M6.2918 18.1251C13.8371 18.1251 17.9652 11.8724 17.9652 6.45167C17.9652 6.27589 17.9613 6.0962 17.9535 5.92042C18.7566 5.33967 19.4496 4.62033 20 3.7962C19.2521 4.12896 18.458 4.34627 17.6449 4.44074C18.5011 3.92755 19.1421 3.12135 19.4492 2.17159C18.6438 2.64892 17.763 2.98563 16.8445 3.1673C16.2257 2.50976 15.4075 2.07439 14.5164 1.9285C13.6253 1.78261 12.711 1.93433 11.9148 2.3602C11.1186 2.78607 10.4848 3.46238 10.1115 4.28455C9.73825 5.10672 9.64619 6.02897 9.84961 6.9087C8.21874 6.82686 6.62328 6.40321 5.16665 5.6652C3.71002 4.9272 2.42474 3.89132 1.39414 2.62472C0.870333 3.52782 0.710047 4.59649 0.945859 5.61353C1.18167 6.63057 1.79589 7.51966 2.66367 8.10011C2.01219 8.07943 1.37498 7.90402 0.804688 7.58839V7.63917C0.804104 8.58691 1.13175 9.50561 1.73192 10.2391C2.3321 10.9726 3.16777 11.4756 4.09687 11.6626C3.49338 11.8277 2.85999 11.8518 2.2457 11.7329C2.50788 12.548 3.01798 13.2609 3.70481 13.7721C4.39164 14.2833 5.22093 14.5673 6.07695 14.5845C4.62369 15.726 2.82848 16.3452 0.980469 16.3423C0.652739 16.3418 0.325333 16.3217 0 16.2821C1.87738 17.4866 4.06128 18.1263 6.2918 18.1251Z" fill="currentColor"/>
  </symbol>
  <symbol fill="none" xmlns="http://www.w3.org/2000/svg" viewBox="0 0 12 12" id="user">
    <path d="M10 10.5V9.5C10 8.96957 9.78929 8.46086 9.41421 8.08579C9.03914 7.71071 8.53043 7.5 8 7.5H4C3.46957 7.5 2.96086 7.71071 2.58579 8.08579C2.21071 8.46086 2 8.96957 2 9.5V10.5M8 3.5C8 4.60457 7.10457 5.5 6 5.5C4.89543 5.5 4 4.60457 4 3.5C4 2.39543 4.89543 1.5 6 1.5C7.10457 1.5 8 2.39543 8 3.5Z" stroke="currentColor" stroke-linecap="round" stroke-linejoin="round"/>
  </symbol>
  <symbol fill="none" xmlns="http://www.w3.org/2000/svg" viewBox="0 0 24 24" id="user-x">
    <path d="M16 21V19C16 17.9391 15.5786 16.9217 14.8284 16.1716C14.0783 15.4214 13.0609 15 12 15H5C3.93913 15 2.92172 15.4214 2.17157 16.1716C1.42143 16.9217 1 17.9391 1 19V21M18 8L23 13M23 8L18 13M12.5 7C12.5 9.20914 10.7091 11 8.5 11C6.29086 11 4.5 9.20914 4.5 7C4.5 4.79086 6.29086 3 8.5 3C10.7091 3 12.5 4.79086 12.5 7Z" stroke="currentColor" stroke-width="2" stroke-linecap="round" stroke-linejoin="round"/>
  </symbol>
  <symbol fill="none" xmlns="http://www.w3.org/2000/svg" viewBox="0 0 12 12" id="volume">
    <path d="M9.535 2.46509C10.4724 3.40273 10.9989 4.67427 10.9989 6.00009C10.9989 7.32591 10.4724 8.59745 9.535 9.53509M7.77 4.23009C8.23868 4.69891 8.50197 5.33468 8.50197 5.99759C8.50197 6.6605 8.23868 7.29627 7.77 7.76509M5.5 2.50009L3 4.50009H1V7.50009H3L5.5 9.50009V2.50009Z" stroke="currentColor" stroke-linecap="round" stroke-linejoin="round"/>
  </symbol>
  <symbol fill="none" xmlns="http://www.w3.org/2000/svg" viewBox="0 0 24 24" id="volume-x">
    <path d="M11 5L6 9H2V15H6L11 19V5Z" fill="#424242"/>
    <path d="M23 9L17 15M17 9L23 15M11 5L6 9H2V15H6L11 19V5Z" stroke="#424242" stroke-width="2" stroke-linecap="round" stroke-linejoin="round"/>
  </symbol>
  <symbol fill="none" xmlns="http://www.w3.org/2000/svg" viewBox="0 0 24 24" id="zap">
    <path d="M13 2L3 14H12L11 22L21 10H12L13 2Z" stroke="currentColor" stroke-width="2" stroke-linecap="round" stroke-linejoin="round"></path>
  </symbol>
</svg>