<svg aria-hidden="true" style="position: absolute; width: 0; height: 0; overflow: hidden;" version="1.1" xmlns="http://www.w3.org/2000/svg" xmlns:xlink="http://www.w3.org/1999/xlink">
    <defs>
        <symbol id="icon-edit" viewBox="0 0 32 32">
            <path fill="none" stroke="#667085" style="stroke: var(--color1, #667085)" stroke-linejoin="round" stroke-linecap="round" stroke-miterlimit="4" stroke-width="2.6667" d="M3.834 24.154c0.061-0.551 0.092-0.827 0.175-1.085 0.074-0.229 0.179-0.446 0.311-0.647 0.149-0.226 0.345-0.422 0.737-0.814l17.608-17.608c1.473-1.473 3.86-1.473 5.333 0s1.473 3.861 0 5.333l-17.608 17.608c-0.392 0.392-0.588 0.588-0.814 0.737-0.201 0.132-0.418 0.237-0.647 0.311-0.258 0.083-0.533 0.114-1.085 0.175l-4.512 0.501 0.501-4.512z"></path>
        </symbol>
        <symbol id="icon-upload-cloud" viewBox="0 0 20 20">
            <path fill="none" d="M6.66699 13.3333L10.0003 10M10.0003 10L13.3337 13.3333M10.0003 10V17.5M16.667 13.9524C17.6849 13.1117 18.3337 11.8399 18.3337 10.4167C18.3337 7.88536 16.2816 5.83333 13.7503 5.83333C13.5682 5.83333 13.3979 5.73833 13.3054 5.58145C12.2187 3.73736 10.2124 2.5 7.91699 2.5C4.46521 2.5 1.66699 5.29822 1.66699 8.75C1.66699 10.4718 2.3632 12.0309 3.48945 13.1613" stroke="#475467" stroke-width="1.66667" stroke-linecap="round" stroke-linejoin="round"/>
        </symbol>
        <symbol id="icon-trash" viewBox="0 0 32 32">
            <path fill="none" stroke="#667085" style="stroke: var(--color1, #667085)" stroke-linejoin="round" stroke-linecap="round" stroke-miterlimit="4" stroke-width="2.6667" d="M12 4h8M4 8h24M25.333 8l-0.935 14.026c-0.14 2.104-0.21 3.156-0.665 3.954-0.4 0.702-1.004 1.267-1.731 1.62-0.826 0.4-1.881 0.4-3.99 0.4h-4.025c-2.109 0-3.163 0-3.99-0.4-0.727-0.352-1.331-0.917-1.731-1.62-0.455-0.798-0.525-1.85-0.665-3.954l-0.935-14.026M13.333 14v6.667M18.667 14v6.667"></path>
        </symbol>
        <symbol id="icon-dots-vertical" viewBox="0 0 32 32">
            <path fill="none" stroke="#667085" style="stroke: var(--color1, #667085)" stroke-linejoin="round" stroke-linecap="round" stroke-miterlimit="4" stroke-width="2.6667" d="M16 17.333c0.736 0 1.333-0.597 1.333-1.333s-0.597-1.333-1.333-1.333c-0.736 0-1.333 0.597-1.333 1.333s0.597 1.333 1.333 1.333z"></path>
            <path fill="none" stroke="#667085" style="stroke: var(--color1, #667085)" stroke-linejoin="round" stroke-linecap="round" stroke-miterlimit="4" stroke-width="2.6667" d="M16 8c0.736 0 1.333-0.597 1.333-1.333s-0.597-1.333-1.333-1.333c-0.736 0-1.333 0.597-1.333 1.333s0.597 1.333 1.333 1.333z"></path>
            <path fill="none" stroke="#667085" style="stroke: var(--color1, #667085)" stroke-linejoin="round" stroke-linecap="round" stroke-miterlimit="4" stroke-width="2.6667" d="M16 26.667c0.736 0 1.333-0.597 1.333-1.333s-0.597-1.333-1.333-1.333c-0.736 0-1.333 0.597-1.333 1.333s0.597 1.333 1.333 1.333z"></path>
        </symbol>
        <symbol id="icon-pencil" viewBox="0 0 32 32">
            <path fill="none" stroke="#7f56d9" style="stroke: var(--color1, #7f56d9)" stroke-linejoin="round" stroke-linecap="round" stroke-miterlimit="4" stroke-width="2.6667" d="M24 2.667l5.333 5.333M2.667 29.333l1.702-6.24c0.111-0.407 0.167-0.611 0.252-0.801 0.076-0.169 0.169-0.329 0.277-0.478 0.123-0.168 0.272-0.317 0.57-0.616l13.778-13.778c0.264-0.264 0.396-0.396 0.548-0.445 0.134-0.043 0.278-0.043 0.412 0 0.152 0.049 0.284 0.181 0.548 0.445l3.825 3.825c0.264 0.264 0.396 0.396 0.445 0.548 0.044 0.134 0.044 0.278 0 0.412-0.049 0.152-0.181 0.284-0.445 0.548l-13.778 13.778c-0.298 0.298-0.448 0.448-0.616 0.57-0.149 0.109-0.31 0.202-0.478 0.277-0.19 0.085-0.393 0.141-0.8 0.252l-6.24 1.702z"></path>
        </symbol>
        <symbol id="icon-close" viewBox="0 0 32 32">
            <path fill="none" stroke="#667085" style="stroke: var(--color2, #667085)" stroke-linejoin="round" stroke-linecap="round" stroke-miterlimit="4" stroke-width="2.6667" d="M24 8l-16 16M8 8l16 16"></path>
        </symbol>
        <symbol id="icon-plus" viewBox="0 0 32 32">
            <path fill="none" stroke="currentColor" stroke-linejoin="round" stroke-linecap="round" stroke-miterlimit="4" stroke-width="2.6667" d="M16 6.667v18.667M6.667 16h18.667"></path>
        </symbol>
        <symbol id="icon-clock" viewBox="0 0 32 32">
            <path fill="none" stroke="#667085" style="stroke: var(--color2, #667085)" stroke-linejoin="round" stroke-linecap="round" stroke-miterlimit="4" stroke-width="2.6667" d="M29.228 17.687c0.070-0.552 0.106-1.115 0.106-1.687 0-7.364-5.97-13.333-13.333-13.333s-13.333 5.97-13.333 13.333c0 7.364 5.97 13.333 13.333 13.333 0.581 0 1.152-0.037 1.713-0.109M16 8v8l4.984 2.492M25.334 29.333v-8M21.334 25.333h8"></path>
        </symbol>
        <symbol id="icon-download" viewBox="0 0 32 32">
            <path fill="none" stroke="currentColor" stroke-linejoin="round" stroke-linecap="round" stroke-miterlimit="4" stroke-width="2.6667" d="M28 20v1.6c0 2.24 0 3.36-0.436 4.216-0.384 0.753-0.995 1.364-1.748 1.748-0.856 0.436-1.976 0.436-4.216 0.436h-11.2c-2.24 0-3.36 0-4.216-0.436-0.753-0.384-1.365-0.995-1.748-1.748-0.436-0.856-0.436-1.976-0.436-4.216v-1.6M22.667 13.333l-6.667 6.667M16 20l-6.667-6.667M16 20v-16"></path>
        </symbol>
        <symbol id="icon-check-circle" viewBox="0 0 32 32">
            <path fill="none" stroke="#039855" style="stroke: var(--color1, #039855)" stroke-linejoin="round" stroke-linecap="round" stroke-miterlimit="4" stroke-width="2.2857" d="M10 16l4 4 8-8M29.333 16c0 7.364-5.97 13.333-13.333 13.333s-13.333-5.97-13.333-13.333 5.97-13.333 13.333-13.333c7.364 0 13.333 5.97 13.333 13.333z"></path>
        </symbol>
        <symbol id="icon-arrow-left" viewBox="0 0 32 32">
            <path fill="none" stroke="#667085" style="stroke: var(--color2, #667085)" stroke-linejoin="round" stroke-linecap="round" stroke-miterlimit="4" stroke-width="2.6667" d="M25.334 16h-18.667M6.667 16l9.333 9.333M6.667 16l9.333-9.333"></path>
        </symbol>
        <symbol id="icon-key" viewBox="0 0 32 32">
            <path fill="none" stroke="#7f56d9" style="stroke: var(--color3, #7f56d9)" stroke-linejoin="round" stroke-linecap="round" stroke-miterlimit="4" stroke-width="2.2857" d="M22.667 12c0-0.682-0.26-1.365-0.781-1.886s-1.203-0.781-1.886-0.781M20 20c4.418 0 8-3.582 8-8s-3.582-8-8-8c-4.418 0-8 3.582-8 8 0 0.365 0.024 0.724 0.072 1.076 0.078 0.579 0.117 0.868 0.091 1.051-0.027 0.191-0.062 0.294-0.156 0.462-0.090 0.162-0.249 0.321-0.567 0.639l-6.814 6.814c-0.231 0.231-0.346 0.346-0.428 0.48-0.073 0.119-0.127 0.249-0.16 0.385-0.037 0.154-0.037 0.317-0.037 0.643v2.316c0 0.747 0 1.12 0.145 1.405 0.128 0.251 0.332 0.455 0.583 0.583 0.285 0.145 0.659 0.145 1.405 0.145h3.2v-2.667h2.667v-2.667h2.667l2.106-2.105c0.318-0.318 0.477-0.477 0.639-0.567 0.168-0.094 0.271-0.129 0.462-0.156 0.183-0.026 0.473 0.013 1.051 0.090 0.352 0.047 0.711 0.072 1.076 0.072z"></path>
        </symbol>
        <symbol id="icon-wallet" viewBox="0 0 32 32">
            <path fill="none" stroke="#475467" style="stroke: var(--color4, #475467)" stroke-linejoin="round" stroke-linecap="round" stroke-miterlimit="4" stroke-width="2.6667" d="M21.333 10.667v-4.666c0-1.109 0-1.663-0.234-2.004-0.204-0.298-0.52-0.5-0.876-0.561-0.407-0.069-0.911 0.163-1.918 0.628l-11.827 5.459c-0.898 0.414-1.347 0.622-1.676 0.943-0.291 0.284-0.513 0.631-0.649 1.014-0.154 0.433-0.154 0.928-0.154 1.917v6.603M22 19.333h0.013M4 14.933v8.8c0 1.493 0 2.24 0.291 2.811 0.256 0.502 0.664 0.91 1.165 1.165 0.57 0.291 1.317 0.291 2.811 0.291h15.467c1.494 0 2.24 0 2.811-0.291 0.502-0.256 0.91-0.664 1.165-1.165 0.291-0.571 0.291-1.317 0.291-2.811v-8.8c0-1.493 0-2.24-0.291-2.811-0.256-0.502-0.664-0.91-1.165-1.165-0.57-0.291-1.317-0.291-2.811-0.291h-15.467c-1.493 0-2.24 0-2.811 0.291-0.502 0.256-0.91 0.664-1.165 1.165-0.291 0.57-0.291 1.317-0.291 2.811zM22.667 19.333c0 0.368-0.299 0.667-0.667 0.667s-0.667-0.299-0.667-0.667c0-0.368 0.299-0.667 0.667-0.667s0.667 0.299 0.667 0.667z"></path>
        </symbol>
        <symbol id="icon-filters" viewBox="0 0 32 32">
            <path fill="none" stroke="#344054" style="stroke: var(--color5, #344054)" stroke-linejoin="round" stroke-linecap="round" stroke-miterlimit="4" stroke-width="2.6667" d="M4 10.667h16M20 10.667c0 2.209 1.791 4 4 4s4-1.791 4-4c0-2.209-1.791-4-4-4s-4 1.791-4 4zM12 21.333h16M12 21.333c0 2.209-1.791 4-4 4s-4-1.791-4-4c0-2.209 1.791-4 4-4s4 1.791 4 4z"></path>
        </symbol>
        <symbol id="icon-logout" viewBox="0 0 32 32">
            <path fill="none" stroke="#667085" style="stroke: var(--color2, #667085)" stroke-linejoin="round" stroke-linecap="round" stroke-miterlimit="4" stroke-width="2.6667" d="M21.333 22.667l6.667-6.667M28 16l-6.667-6.667M28 16h-16M12 4h-1.6c-2.24 0-3.36 0-4.216 0.436-0.753 0.383-1.365 0.995-1.748 1.748-0.436 0.856-0.436 1.976-0.436 4.216v11.2c0 2.24 0 3.36 0.436 4.216 0.383 0.753 0.995 1.364 1.748 1.748 0.856 0.436 1.976 0.436 4.216 0.436h1.6"></path>
        </symbol>
        <symbol id="icon-settings" viewBox="0 0 32 32">
            <path fill="none" stroke="currentColor" stroke-linejoin="round" stroke-linecap="round" stroke-miterlimit="4" stroke-width="2.6667" d="M16 20c2.209 0 4-1.791 4-4s-1.791-4-4-4c-2.209 0-4 1.791-4 4s1.791 4 4 4z"></path>
            <path fill="none" stroke="currentColor" stroke-linejoin="round" stroke-linecap="round" stroke-miterlimit="4" stroke-width="2.6667" d="M24.97 19.636c-0.161 0.366-0.209 0.771-0.138 1.164s0.259 0.756 0.538 1.042l0.073 0.073c0.225 0.225 0.404 0.492 0.526 0.787s0.185 0.61 0.185 0.928c0 0.319-0.063 0.634-0.185 0.928s-0.301 0.562-0.526 0.787c-0.225 0.225-0.493 0.404-0.787 0.526s-0.61 0.185-0.928 0.185c-0.319 0-0.634-0.063-0.928-0.185s-0.562-0.301-0.787-0.526l-0.073-0.073c-0.286-0.279-0.648-0.467-1.042-0.538s-0.799-0.023-1.164 0.138c-0.359 0.154-0.664 0.409-0.88 0.734s-0.331 0.706-0.333 1.096v0.206c0 0.643-0.255 1.26-0.71 1.714s-1.071 0.71-1.714 0.71-1.259-0.255-1.714-0.71c-0.455-0.455-0.71-1.071-0.71-1.714v-0.109c-0.009-0.401-0.139-0.79-0.373-1.117s-0.56-0.575-0.936-0.714c-0.366-0.161-0.771-0.209-1.164-0.138s-0.756 0.259-1.042 0.538l-0.073 0.073c-0.225 0.225-0.493 0.404-0.787 0.526s-0.61 0.185-0.928 0.185c-0.319 0-0.634-0.063-0.928-0.185s-0.562-0.301-0.787-0.526c-0.225-0.225-0.404-0.493-0.526-0.787s-0.185-0.61-0.185-0.928c0-0.319 0.063-0.634 0.185-0.928s0.301-0.562 0.526-0.787l0.073-0.073c0.279-0.286 0.467-0.648 0.538-1.042s0.023-0.799-0.138-1.164c-0.154-0.359-0.409-0.664-0.734-0.88s-0.706-0.331-1.096-0.333h-0.206c-0.643 0-1.26-0.255-1.714-0.71s-0.71-1.071-0.71-1.714c0-0.643 0.255-1.259 0.71-1.714s1.071-0.71 1.714-0.71h0.109c0.401-0.009 0.79-0.139 1.117-0.373s0.575-0.56 0.714-0.936c0.161-0.366 0.209-0.771 0.138-1.164s-0.259-0.756-0.538-1.042l-0.073-0.073c-0.225-0.225-0.404-0.493-0.526-0.787s-0.185-0.61-0.185-0.928c0-0.319 0.063-0.634 0.185-0.928s0.301-0.562 0.526-0.787c0.225-0.225 0.493-0.404 0.787-0.526s0.61-0.185 0.928-0.185c0.319 0 0.634 0.063 0.928 0.185s0.562 0.301 0.787 0.526l0.073 0.073c0.286 0.279 0.649 0.467 1.042 0.538s0.799 0.023 1.164-0.138h0.097c0.358-0.154 0.664-0.409 0.88-0.734s0.331-0.706 0.332-1.096v-0.206c0-0.643 0.255-1.26 0.71-1.714s1.071-0.71 1.714-0.71 1.26 0.255 1.714 0.71c0.455 0.455 0.71 1.071 0.71 1.714v0.109c0.001 0.39 0.117 0.771 0.333 1.096s0.521 0.58 0.88 0.734c0.366 0.161 0.771 0.209 1.164 0.138s0.756-0.259 1.042-0.538l0.073-0.073c0.225-0.225 0.492-0.404 0.787-0.526s0.61-0.185 0.928-0.185c0.319 0 0.634 0.063 0.928 0.185s0.562 0.301 0.787 0.526c0.225 0.225 0.404 0.493 0.526 0.787s0.185 0.61 0.185 0.928c0 0.319-0.063 0.634-0.185 0.928s-0.301 0.562-0.526 0.787l-0.073 0.073c-0.279 0.286-0.467 0.649-0.538 1.042s-0.023 0.799 0.138 1.164v0.097c0.154 0.358 0.409 0.664 0.734 0.88s0.706 0.331 1.096 0.332h0.206c0.643 0 1.26 0.255 1.714 0.71s0.71 1.071 0.71 1.714-0.255 1.26-0.71 1.714c-0.455 0.455-1.071 0.71-1.714 0.71h-0.109c-0.39 0.001-0.771 0.117-1.096 0.333s-0.58 0.521-0.734 0.88z"></path>
        </symbol>
        <symbol id="icon-help" viewBox="0 0 32 32">
            <path fill="none" stroke="currentColor" stroke-linejoin="round" stroke-linecap="round" stroke-miterlimit="4" stroke-width="2.6667" d="M12.12 12c0.313-0.891 0.932-1.643 1.747-2.121s1.772-0.654 2.703-0.494 1.775 0.644 2.384 1.366c0.608 0.723 0.941 1.637 0.94 2.582 0 2.667-4 4-4 4M16 22.667h0.013M29.333 16c0 7.364-5.97 13.333-13.333 13.333s-13.333-5.97-13.333-13.333c0-7.364 5.97-13.333 13.333-13.333s13.333 5.97 13.333 13.333z"></path>
        </symbol>
        <symbol id="icon-arrow-down" viewBox="0 0 32 32">
            <path fill="none" stroke="currentColor" stroke-linejoin="round" stroke-linecap="round" stroke-miterlimit="4" stroke-width="2.6667" d="M8 12l8 8 8-8"></path>
        </symbol>
        <symbol id="icon-search" viewBox="0 0 32 32">
            <path fill="none" stroke="#667085" style="stroke: var(--color2, #667085)" stroke-linejoin="round" stroke-linecap="round" stroke-miterlimit="4" stroke-width="2.6667" d="M28 28l-4.667-4.667M26.667 15.333c0 6.259-5.074 11.333-11.333 11.333s-11.333-5.074-11.333-11.333c0-6.259 5.074-11.333 11.333-11.333s11.333 5.074 11.333 11.333z"></path>
        </symbol>
        <symbol id="icon-upload" viewBox="0 0 32 32">
            <path fill="none" stroke="currentColor" stroke-linejoin="round" stroke-linecap="round" stroke-miterlimit="4" stroke-width="2.6667" d="M28 20v1.6c0 2.24 0 3.36-0.436 4.216-0.383 0.753-0.995 1.365-1.748 1.748-0.856 0.436-1.976 0.436-4.216 0.436h-11.2c-2.24 0-3.36 0-4.216-0.436-0.753-0.383-1.365-0.995-1.748-1.748-0.436-0.856-0.436-1.976-0.436-4.216v-1.6M22.667 10.667l-6.667-6.667M16 4l-6.667 6.667M16 4v16"></path>
        </symbol>
        <symbol id="icon-clipboard" viewBox="0 0 32 32">
            <path fill="none" stroke="currentColor" stroke-linejoin="round" stroke-linecap="round" stroke-miterlimit="4" stroke-width="2.6667" d="M21.333 5.333c1.24 0 1.86 0 2.369 0.136 1.38 0.37 2.459 1.448 2.828 2.828 0.136 0.509 0.136 1.129 0.136 2.369v12.267c0 2.24 0 3.36-0.436 4.216-0.383 0.753-0.995 1.365-1.748 1.748-0.856 0.436-1.976 0.436-4.216 0.436h-8.533c-2.24 0-3.36 0-4.216-0.436-0.753-0.383-1.365-0.995-1.748-1.748-0.436-0.856-0.436-1.976-0.436-4.216v-12.267c0-1.24 0-1.86 0.136-2.369 0.37-1.38 1.448-2.459 2.828-2.828 0.509-0.136 1.129-0.136 2.369-0.136M12.8 8h6.4c0.747 0 1.12 0 1.405-0.145 0.251-0.128 0.455-0.332 0.583-0.583 0.145-0.285 0.145-0.659 0.145-1.405v-1.067c0-0.747 0-1.12-0.145-1.405-0.128-0.251-0.332-0.455-0.583-0.583-0.285-0.145-0.659-0.145-1.405-0.145h-6.4c-0.747 0-1.12 0-1.405 0.145-0.251 0.128-0.455 0.332-0.583 0.583-0.145 0.285-0.145 0.659-0.145 1.405v1.067c0 0.747 0 1.12 0.145 1.405 0.128 0.251 0.332 0.455 0.583 0.583 0.285 0.145 0.659 0.145 1.405 0.145z"></path>
        </symbol>
        <symbol id="icon-users" viewBox="0 0 32 32">
            <path fill="none" stroke="currentColor" stroke-linejoin="round" stroke-linecap="round" stroke-miterlimit="4" stroke-width="2.6667" d="M29.333 28v-2.667c0-2.485-1.7-4.573-4-5.165M20.667 4.388c1.955 0.791 3.333 2.707 3.333 4.946s-1.379 4.155-3.333 4.946M22.667 28c0-2.485 0-3.727-0.406-4.708-0.541-1.307-1.58-2.345-2.886-2.886-0.98-0.406-2.223-0.406-4.708-0.406h-4c-2.485 0-3.728 0-4.708 0.406-1.307 0.541-2.345 1.58-2.886 2.886-0.406 0.98-0.406 2.223-0.406 4.708M18 9.333c0 2.946-2.388 5.333-5.333 5.333s-5.333-2.388-5.333-5.333 2.388-5.333 5.333-5.333c2.945 0 5.333 2.388 5.333 5.333z"></path>
        </symbol>
        <symbol id="icon-mail" viewBox="0 0 32 32">
            <path fill="none" stroke="currentColor" stroke-linejoin="round" stroke-linecap="round" stroke-miterlimit="4" stroke-width="2.6667" d="M2.667 9.333l10.887 7.621c0.882 0.617 1.322 0.926 1.802 1.045 0.423 0.106 0.866 0.106 1.29 0 0.479-0.119 0.92-0.428 1.802-1.045l10.887-7.621M9.067 26.667h13.867c2.24 0 3.36 0 4.216-0.436 0.753-0.383 1.365-0.995 1.748-1.748 0.436-0.856 0.436-1.976 0.436-4.216v-8.533c0-2.24 0-3.36-0.436-4.216-0.383-0.753-0.995-1.365-1.748-1.748-0.856-0.436-1.976-0.436-4.216-0.436h-13.867c-2.24 0-3.36 0-4.216 0.436-0.753 0.383-1.365 0.995-1.748 1.748-0.436 0.856-0.436 1.976-0.436 4.216v8.533c0 2.24 0 3.36 0.436 4.216 0.384 0.753 0.995 1.365 1.748 1.748 0.856 0.436 1.976 0.436 4.216 0.436z"></path>
        </symbol>
        <symbol id="icon-layers" viewBox="0 0 32 32">
            <path fill="none" stroke="currentColor" stroke-linejoin="round" stroke-linecap="round" stroke-miterlimit="4" stroke-width="2.6667" d="M2.667 16l12.856 6.428c0.175 0.087 0.262 0.131 0.354 0.148 0.081 0.015 0.165 0.015 0.246 0 0.092-0.017 0.179-0.061 0.354-0.148l12.856-6.428M2.667 22.667l12.856 6.428c0.175 0.087 0.262 0.131 0.354 0.148 0.081 0.015 0.165 0.015 0.246 0 0.092-0.017 0.179-0.061 0.354-0.148l12.856-6.428M2.667 9.333l12.856-6.428c0.175-0.087 0.262-0.131 0.354-0.148 0.081-0.015 0.165-0.015 0.246 0 0.092 0.017 0.179 0.061 0.354 0.148l12.856 6.428-12.856 6.428c-0.175 0.087-0.262 0.131-0.354 0.148-0.081 0.015-0.165 0.015-0.246 0-0.092-0.017-0.179-0.061-0.354-0.148l-12.856-6.428z"></path>
        </symbol>
        <symbol id="icon-bar-chart" viewBox="0 0 32 32">
            <path fill="none" stroke="currentColor" stroke-linejoin="round" stroke-linecap="round" stroke-miterlimit="4" stroke-width="2.6667" d="M10.667 17.333v5.333M21.333 14.667v8M16 9.333v13.333M10.4 28h11.2c2.24 0 3.36 0 4.216-0.436 0.753-0.383 1.365-0.995 1.748-1.748 0.436-0.856 0.436-1.976 0.436-4.216v-11.2c0-2.24 0-3.36-0.436-4.216-0.383-0.753-0.995-1.365-1.748-1.748-0.856-0.436-1.976-0.436-4.216-0.436h-11.2c-2.24 0-3.36 0-4.216 0.436-0.753 0.383-1.365 0.995-1.748 1.748-0.436 0.856-0.436 1.976-0.436 4.216v11.2c0 2.24 0 3.36 0.436 4.216 0.383 0.753 0.995 1.365 1.748 1.748 0.856 0.436 1.976 0.436 4.216 0.436z"></path>
        </symbol>
        <symbol id="icon-dashboard" viewBox="0 0 32 32">
            <path fill="none" stroke="currentColor" stroke-linejoin="round" stroke-linecap="round" stroke-miterlimit="4" stroke-width="2.6667" d="M10.667 22.667h10.667M14.69 3.685l-9.043 7.034c-0.604 0.47-0.907 0.705-1.124 1-0.193 0.261-0.337 0.555-0.424 0.867-0.099 0.353-0.099 0.736-0.099 1.501v9.647c0 1.493 0 2.24 0.291 2.811 0.256 0.502 0.664 0.91 1.165 1.165 0.57 0.291 1.317 0.291 2.811 0.291h15.467c1.493 0 2.24 0 2.811-0.291 0.502-0.256 0.91-0.664 1.165-1.165 0.291-0.571 0.291-1.317 0.291-2.811v-9.647c0-0.766 0-1.149-0.099-1.501-0.087-0.312-0.231-0.606-0.424-0.867-0.218-0.294-0.52-0.529-1.125-1l-9.043-7.034c-0.468-0.364-0.703-0.546-0.961-0.617-0.228-0.062-0.469-0.062-0.697 0-0.259 0.070-0.493 0.252-0.961 0.617z"></path>
        </symbol>
        <symbol id="icon-google" viewBox="0 0 32 32">
            <path fill="#4285f4" style="fill: var(--color7, #4285f4)" d="M31.688 16.369c0-1.088-0.088-2.181-0.276-3.251h-15.092v6.161h8.642c-0.359 1.987-1.511 3.745-3.198 4.862v3.998h5.156c3.028-2.787 4.768-6.902 4.768-11.77z"></path>
            <path fill="#34a853" style="fill: var(--color8, #34a853)" d="M16.32 32.001c4.315 0 7.954-1.417 10.606-3.863l-5.156-3.998c-1.435 0.976-3.287 1.529-5.444 1.529-4.174 0-7.713-2.816-8.983-6.602h-5.321v4.121c2.716 5.403 8.248 8.813 14.298 8.813z"></path>
            <path fill="#fbbc04" style="fill: var(--color9, #fbbc04)" d="M7.337 19.067c-0.67-1.987-0.67-4.139 0-6.126v-4.121h-5.315c-2.269 4.521-2.269 9.848 0 14.369l5.315-4.121z"></path>
            <path fill="#ea4335" style="fill: var(--color10, #ea4335)" d="M16.32 6.333c2.281-0.035 4.486 0.823 6.138 2.399l4.568-4.568c-2.893-2.716-6.732-4.209-10.706-4.162-6.050 0-11.582 3.41-14.298 8.819l5.315 4.121c1.264-3.792 4.809-6.608 8.983-6.608z"></path>
        </symbol>
    </defs>
</svg>
